<svg width="359" height="136" viewBox="0 0 359 136" fill="none" xmlns="http://www.w3.org/2000/svg">
<path d="M342 6C350.837 6 358 13.1634 358 22V85.75C358 94.5866 350.837 101.75 342 101.75H133.287L83.7539 132.847L82.2227 133.809V101.75H22C13.1635 101.75 6 94.5866 6 85.75V22C6 13.1634 13.1634 6 22 6H342Z" fill="#F57200" stroke="#111111" stroke-width="2"/>
<path d="M332 1C343.598 1 353 10.402 353 22V75.75C353 87.348 343.598 96.75 332 96.75H128.287L78.7539 127.847L77.2227 128.809V96.75H22C10.402 96.75 1 87.348 1 75.75V22C1 10.402 10.402 1 22 1H332Z" fill="white" stroke="#111111" stroke-width="2"/>
</svg>
