<svg width="22" height="22" viewBox="0 0 22 22" fill="none" xmlns="http://www.w3.org/2000/svg">
<path d="M21.5 11C21.5 9.64671 20.4233 8.54367 19.0802 8.50127C19.3459 8.0786 19.498 7.55623 19.498 7C19.498 5.72992 18.6566 4.5 17.398 4.5H16.9982C17.312 4.08217 17.498 3.5628 17.498 3C17.498 1.61929 16.3787 0.5 14.998 0.5H6.998C5.61729 0.5 4.498 1.61929 4.498 3C4.498 3.5628 4.68397 4.08217 4.99782 4.5H4.598C3.97769 4.5 3.44016 4.81537 3.07472 5.27471C2.71217 5.73041 2.498 6.34178 2.498 7C2.498 7.53833 2.64864 8.06863 2.91776 8.50133C2.2603 8.52266 1.66626 8.79863 1.23245 9.23244C0.780614 9.68428 0.5 10.3099 0.5 11C0.5 12.3549 1.57594 13.4553 2.91775 13.4987C2.64864 13.9314 2.498 14.4617 2.498 15C2.498 15.6582 2.71217 16.2696 3.07472 16.7253C3.44016 17.1846 3.97769 17.5 4.598 17.5H4.99782C4.68397 17.9178 4.498 18.4372 4.498 19C4.498 20.3807 5.61729 21.5 6.998 21.5H14.998C16.3787 21.5 17.498 20.3807 17.498 19C17.498 18.4372 17.312 17.9178 16.9982 17.5H17.398C18.6566 17.5 19.498 16.2701 19.498 15C19.498 14.4438 19.3459 13.9214 19.0802 13.4987C19.7382 13.4779 20.3328 13.202 20.7671 12.768C21.2199 12.3174 21.5 11.6913 21.5 11ZM9.5 11C9.5 10.1718 10.1705 9.5 11 9.5C11.8279 9.5 12.5 10.1721 12.5 11C12.5 11.8279 11.8279 12.5 11 12.5C10.1705 12.5 9.5 11.8282 9.5 11Z" fill="#FFAF02" stroke="#111111"/>
</svg>
