<svg width="22" height="22" viewBox="0 0 22 22" fill="none" xmlns="http://www.w3.org/2000/svg">
<path d="M14.998 0.5C16.3787 0.500027 17.498 1.6193 17.498 3C17.498 3.56368 17.3089 4.08184 16.9941 4.5H17.3984C18.6568 4.50029 19.498 5.73006 19.498 7C19.498 7.55756 19.343 8.07973 19.0762 8.50293C20.4211 8.54326 21.5 9.64536 21.5 11C21.5 11.6911 21.2192 12.316 20.7666 12.7666L20.7676 12.7676C20.3324 13.2027 19.736 13.4763 19.0762 13.4961C19.3433 13.9194 19.498 14.4421 19.498 15C19.498 16.2699 18.6568 17.4997 17.3984 17.5H16.9941C17.3089 17.9182 17.498 18.4363 17.498 19C17.498 20.3807 16.3787 21.5 14.998 21.5H6.99805C5.61734 21.5 4.49805 20.3807 4.49805 19C4.49805 18.4363 4.6872 17.9182 5.00195 17.5H4.59766C3.97767 17.4999 3.44056 17.1846 3.0752 16.7256C2.71265 16.2699 2.49805 15.6582 2.49805 15C2.49805 14.46 2.65024 13.9285 2.9209 13.4951C1.57768 13.4533 0.5 12.3559 0.5 11C0.5 10.3099 0.78059 9.68425 1.23242 9.23242C1.66691 8.79794 2.26223 8.52447 2.9209 8.50391C2.65051 8.0706 2.49805 7.53968 2.49805 7C2.49805 6.34178 2.71265 5.73012 3.0752 5.27441C3.44056 4.81539 3.97767 4.50012 4.59766 4.5H5.00195C4.6872 4.08183 4.49805 3.5637 4.49805 3C4.49805 1.61929 5.61734 0.5 6.99805 0.5H14.998ZM11 9.5C10.1705 9.5 9.5 10.1718 9.5 11C9.5 11.8282 10.1705 12.5 11 12.5C11.8279 12.5 12.5 11.8279 12.5 11C12.5 10.1721 11.8279 9.5 11 9.5Z" fill="#916CFE" stroke="#111111"/>
</svg>
