<svg width="359" height="211" viewBox="0 0 359 211" fill="none" xmlns="http://www.w3.org/2000/svg">
<path d="M342 6C350.837 6 358 13.1634 358 22V141.25C358 150.087 350.837 157.25 342 157.25H133.414L83.9287 206.707L82.2227 208.413V157.25H22C13.1635 157.25 6 150.087 6 141.25V22C6 13.1634 13.1634 6 22 6H342Z" fill="#FFAF02" stroke="#111111" stroke-width="2"/>
<path d="M332 1C343.598 1 353 10.402 353 22V131.25C353 142.848 343.598 152.25 332 152.25H128.414L78.9287 201.707L77.2227 203.413V152.25H22C10.402 152.25 1 142.848 1 131.25V22C1 10.402 10.402 1 22 1H332Z" fill="white" stroke="#111111" stroke-width="2"/>
</svg>
